<svg xmlns="http://www.w3.org/2000/svg" xmlns:xlink="http://www.w3.org/1999/xlink" width="64" height="65" viewBox="0 0 64 65">
  <defs>
    <filter id="Path_3028" x="19.661" y="9.239" width="23.831" height="31.356" filterUnits="userSpaceOnUse">
      <feOffset dy="3" input="SourceAlpha"/>
      <feGaussianBlur stdDeviation="1" result="blur"/>
      <feFlood flood-opacity="0.161"/>
      <feComposite operator="in" in2="blur"/>
      <feComposite in="SourceGraphic"/>
    </filter>
    <filter id="Ellipse_2803" x="21.019" y="17.598" width="12.92" height="12.92" filterUnits="userSpaceOnUse">
      <feOffset dy="3" input="SourceAlpha"/>
      <feGaussianBlur stdDeviation="1" result="blur-2"/>
      <feFlood flood-opacity="0.161"/>
      <feComposite operator="in" in2="blur-2"/>
      <feComposite in="SourceGraphic"/>
    </filter>
    <filter id="Ellipse_2804" x="28.861" y="17.598" width="12.92" height="12.92" filterUnits="userSpaceOnUse">
      <feOffset dy="3" input="SourceAlpha"/>
      <feGaussianBlur stdDeviation="1" result="blur-3"/>
      <feFlood flood-opacity="0.161"/>
      <feComposite operator="in" in2="blur-3"/>
      <feComposite in="SourceGraphic"/>
    </filter>
    <filter id="Path_3041" x="19.132" y="5.976" width="25.02" height="19.644" filterUnits="userSpaceOnUse">
      <feOffset dy="1" input="SourceAlpha"/>
      <feGaussianBlur stdDeviation="1" result="blur-4"/>
      <feFlood flood-opacity="0.161"/>
      <feComposite operator="in" in2="blur-4"/>
      <feComposite in="SourceGraphic"/>
    </filter>
    <filter id="Path_3042" x="6.36" y="39.612" width="51.398" height="19.74" filterUnits="userSpaceOnUse">
      <feOffset dy="1" input="SourceAlpha"/>
      <feGaussianBlur stdDeviation="1" result="blur-5"/>
      <feFlood flood-opacity="0.161"/>
      <feComposite operator="in" in2="blur-5"/>
      <feComposite in="SourceGraphic"/>
    </filter>
    <filter id="Path_3043" x="9.879" y="43.19" width="44.358" height="8.063" filterUnits="userSpaceOnUse">
      <feOffset dy="1" input="SourceAlpha"/>
      <feGaussianBlur stdDeviation="1" result="blur-6"/>
      <feFlood flood-opacity="0.161"/>
      <feComposite operator="in" in2="blur-6"/>
      <feComposite in="SourceGraphic"/>
    </filter>
    <filter id="Path_3044" x="7.214" y="48.031" width="49.613" height="8.063" filterUnits="userSpaceOnUse">
      <feOffset dy="1" input="SourceAlpha"/>
      <feGaussianBlur stdDeviation="1" result="blur-7"/>
      <feFlood flood-opacity="0.161"/>
      <feComposite operator="in" in2="blur-7"/>
      <feComposite in="SourceGraphic"/>
    </filter>
    <filter id="Path_3045" x="16.586" y="30.015" width="30.59" height="16.74" filterUnits="userSpaceOnUse">
      <feOffset dy="1" input="SourceAlpha"/>
      <feGaussianBlur stdDeviation="1" result="blur-8"/>
      <feFlood flood-opacity="0.161"/>
      <feComposite operator="in" in2="blur-8"/>
      <feComposite in="SourceGraphic"/>
    </filter>
    <filter id="Path_3046" x="23.243" y="30.263" width="17.235" height="11.896" filterUnits="userSpaceOnUse">
      <feOffset dy="1" input="SourceAlpha"/>
      <feGaussianBlur stdDeviation="1" result="blur-9"/>
      <feFlood flood-opacity="0.102"/>
      <feComposite operator="in" in2="blur-9"/>
      <feComposite in="SourceGraphic"/>
    </filter>
  </defs>
  <g id="صورة_ايقونة_تسجيل_الدخول" data-name="صورة ايقونة تسجيل الدخول" transform="translate(-651 -214)">
    <ellipse id="Ellipse_168" data-name="Ellipse 168" cx="32" cy="32.5" rx="32" ry="32.5" transform="translate(651 214)" fill="rgba(12,136,73,0.15)"/>
    <g id="Group_5786" data-name="Group 5786" transform="translate(606.863 97.082)">
      <g id="Group_5782" data-name="Group 5782" transform="translate(64.933 124.894)">
        <g id="Group_5781" data-name="Group 5781" transform="translate(0 0)">
          <g transform="matrix(1, 0, 0, 1, -20.8, -7.98)" filter="url(#Path_3028)">
            <path id="Path_3028-2" data-name="Path 3028" d="M105.294,139.085s1.02,15.183-8.159,15.183-8.442-15.183-8.442-15.183-.443-9.03,8.753-9.03C106.005,130.055,105.294,139.085,105.294,139.085Z" transform="translate(-65.43 -120.24)" fill="none" stroke="#0c8849" stroke-miterlimit="10" stroke-width="1.143"/>
          </g>
          <g id="Group_5775" data-name="Group 5775" transform="translate(18.505 13.056)">
            <path id="Path_3029" data-name="Path 3029" d="M134.39,162.42s.859-1.242,1.879-.64.7,2.827,0,3.939-1.817,1.662-2.438.808" transform="translate(-133.831 -161.615)" fill="none" stroke="#0c8849" stroke-miterlimit="10" stroke-width="1.143"/>
            <g id="Group_5774" data-name="Group 5774" transform="translate(0.362 1.518)">
              <g id="Group_5773" data-name="Group 5773">
                <path id="Path_3030" data-name="Path 3030" d="M136.813,165.922s-1.149-.383-1.964,1.308" transform="translate(-134.849 -165.885)" fill="none" stroke="#0c8849" stroke-linecap="round" stroke-linejoin="round" stroke-width="0.572"/>
              </g>
              <path id="Path_3031" data-name="Path 3031" d="M136.418,167.342s1.25.668.424,1.674" transform="translate(-135.86 -166.824)" fill="none" stroke="#0c8849" stroke-linecap="round" stroke-linejoin="round" stroke-width="0.572"/>
            </g>
          </g>
          <g id="Group_5778" data-name="Group 5778" transform="translate(0 13.056)">
            <path id="Path_3032" data-name="Path 3032" d="M84.311,162.42s-.859-1.242-1.879-.64-.7,2.827,0,3.939,1.817,1.662,2.438.808" transform="translate(-81.783 -161.615)" fill="none" stroke="#0c8849" stroke-miterlimit="10" stroke-width="1.143"/>
            <g id="Group_5777" data-name="Group 5777" transform="translate(0.76 1.518)">
              <g id="Group_5776" data-name="Group 5776">
                <path id="Path_3033" data-name="Path 3033" d="M83.922,165.922s1.149-.383,1.964,1.308" transform="translate(-83.922 -165.885)" fill="none" stroke="#0c8849" stroke-linecap="round" stroke-linejoin="round" stroke-width="0.572"/>
              </g>
              <path id="Path_3034" data-name="Path 3034" d="M86.6,167.342s-1.25.668-.424,1.674" transform="translate(-85.191 -166.824)" fill="none" stroke="#0c8849" stroke-linecap="round" stroke-linejoin="round" stroke-width="0.572"/>
            </g>
          </g>
          <g id="Group_5780" data-name="Group 5780" transform="translate(2.485 8.527)">
            <path id="Path_3035" data-name="Path 3035" d="M110.941,163.074v3.183a.756.756,0,0,0,.054.281.742.742,0,0,0,.885.411l.764-.2" transform="translate(-103.059 -158.027)" fill="none" stroke="#0c8849" stroke-linecap="round" stroke-linejoin="round" stroke-width="1.082"/>
            <path id="Path_3036" data-name="Path 3036" d="M100.088,148.878c-.066.1-.465,1.362-.465,1.362H95.238l1.489-.844a3.315,3.315,0,0,1,1.208-.339Z" transform="translate(-92.94 -148.878)" fill="#0c8849"/>
            <path id="Path_3037" data-name="Path 3037" d="M116.654,148.878c.066.1.465,1.362.465,1.362H121.5l-1.488-.844a3.319,3.319,0,0,0-1.208-.339Z" transform="translate(-106.741 -148.878)" fill="#0c8849"/>
            <circle id="Ellipse_2802" data-name="Ellipse 2802" cx="0.761" cy="0.761" r="0.761" transform="translate(4.186 3.594)" fill="#0c8849"/>
            <path id="Path_3038" data-name="Path 3038" d="M122.016,159.749a.761.761,0,1,1-.761-.761A.761.761,0,0,1,122.016,159.749Z" transform="translate(-109.216 -155.393)" fill="#0c8849"/>
            <line id="Line_163" data-name="Line 163" x1="1.893" y2="1.249" transform="translate(4.434 5.117)" fill="none" stroke="#0c8849" stroke-linecap="round" stroke-linejoin="round" stroke-width="0.572"/>
            <line id="Line_164" data-name="Line 164" x2="1.674" y2="1.262" transform="translate(10.841 5.254)" fill="none" stroke="#0c8849" stroke-linecap="round" stroke-linejoin="round" stroke-width="0.572"/>
            <path id="Path_3039" data-name="Path 3039" d="M105.412,178.376a5.4,5.4,0,0,0,2.765.873,4.334,4.334,0,0,0,2.562-.873" transform="translate(-99.496 -167.888)" fill="none" stroke="#0c8849" stroke-linecap="round" stroke-linejoin="round" stroke-width="1.082"/>
            <g id="Group_5779" data-name="Group 5779" transform="translate(0 1.362)">
              <g transform="matrix(1, 0, 0, 1, -23.28, -17.87)" filter="url(#Ellipse_2803)">
                <circle id="Ellipse_2803-2" data-name="Ellipse 2803" cx="3.192" cy="3.192" r="3.192" transform="translate(24.29 17.87)" fill="none" stroke="#0c8849" stroke-linecap="round" stroke-linejoin="round" stroke-width="0.535"/>
              </g>
              <g transform="matrix(1, 0, 0, 1, -23.28, -17.87)" filter="url(#Ellipse_2804)">
                <circle id="Ellipse_2804-2" data-name="Ellipse 2804" cx="3.192" cy="3.192" r="3.192" transform="translate(32.13 17.87)" fill="none" stroke="#0c8849" stroke-linecap="round" stroke-linejoin="round" stroke-width="0.535"/>
              </g>
              <path id="Path_3040" data-name="Path 3040" d="M109.557,161.118a1.039,1.039,0,0,1,1.458,0" transform="translate(-102.168 -157.926)" fill="none" stroke="#0c8849" stroke-linecap="round" stroke-linejoin="round" stroke-width="0.535"/>
              <line id="Line_165" data-name="Line 165" x1="1.126" y1="0.885" transform="translate(0 3.167)" fill="none" stroke="#0c8849" stroke-linecap="round" stroke-linejoin="round" stroke-width="0.535"/>
              <line id="Line_166" data-name="Line 166" y1="1.178" x2="1.498" transform="translate(15.117 2.874)" fill="none" stroke="#0c8849" stroke-linecap="round" stroke-linejoin="round" stroke-width="0.535"/>
            </g>
          </g>
          <g transform="matrix(1, 0, 0, 1, -20.8, -7.98)" filter="url(#Path_3041)">
            <path id="Path_3041-2" data-name="Path 3041" d="M94.968,124.894c-11.181,0-10.052,7.61-8.351,13.644,0,0,1.513-2.813,1.212-4.8A33.491,33.491,0,0,0,99.9,129.5c.439,3.469,3.441,8.619,3.441,8.619C105.037,132.5,106.795,124.894,94.968,124.894Z" transform="translate(-63.41 -116.92)" fill="#0c8849"/>
          </g>
        </g>
      </g>
      <g id="Group_5785" data-name="Group 5785" transform="translate(54.068 149.181)">
        <g id="Group_5783" data-name="Group 5783" transform="translate(0 9.92)">
          <g transform="matrix(1, 0, 0, 1, -9.93, -42.18)" filter="url(#Path_3042)">
            <path id="Path_3042-2" data-name="Path 3042" d="M98.322,230.365c0-7.948-9.65-12.6-9.65-12.6H63.718s-9.65,4.649-9.65,12.6" transform="translate(-44.14 -175.58)" fill="none" stroke="#0c8849" stroke-linecap="round" stroke-linejoin="round" stroke-width="1.143"/>
          </g>
          <g transform="matrix(1, 0, 0, 1, -9.93, -42.18)" filter="url(#Path_3043)">
            <path id="Path_3043-2" data-name="Path 3043" d="M100.718,228.288H62.36l2.1-2.063H98.615Z" transform="translate(-49.48 -181.04)" fill="#0c8849"/>
          </g>
          <g transform="matrix(1, 0, 0, 1, -9.93, -42.18)" filter="url(#Path_3044)">
            <path id="Path_3044-2" data-name="Path 3044" d="M98.476,241.9H54.863l1.011-2.063H97.45Z" transform="translate(-44.65 -189.81)" fill="#0c8849"/>
          </g>
        </g>
        <g id="Group_5784" data-name="Group 5784" transform="translate(10.226)">
          <g transform="matrix(1, 0, 0, 1, -20.16, -32.26)" filter="url(#Path_3045)">
            <path id="Path_3045-2" data-name="Path 3045" d="M85.878,190.777v6.382s-1.371,2.418-5.962,3.214h23.447s-5.88-1.225-6.307-3.214v-6.382" transform="translate(-59.76 -158.19)" fill="none" stroke="#0c8849" stroke-linecap="round" stroke-linejoin="round" stroke-width="1.143"/>
          </g>
          <g transform="matrix(1, 0, 0, 1, -20.16, -32.26)" filter="url(#Path_3046)">
            <path id="Path_3046-2" data-name="Path 3046" d="M97.031,190.363a12.958,12.958,0,0,0,4.319,4.8,4.421,4.421,0,0,0,5.76-1.126,6.87,6.87,0,0,0,1.156-4.166,7.916,7.916,0,0,1-5.324,2.947C99.756,192.946,97.031,190.363,97.031,190.363Z" transform="translate(-70.79 -157.6)" fill="#0c8849"/>
          </g>
        </g>
      </g>
    </g>
  </g>
</svg>
